<?xml version="1.0" encoding="UTF-8" standalone="no"?>
<svg
   xmlns:dc="http://purl.org/dc/elements/1.1/"
   xmlns:cc="http://creativecommons.org/ns#"
   xmlns:rdf="http://www.w3.org/1999/02/22-rdf-syntax-ns#"
   xmlns:svg="http://www.w3.org/2000/svg"
   xmlns="http://www.w3.org/2000/svg"
   viewBox="0 0 816 1056"
   height="1056"
   width="816"
   xml:space="preserve"
   id="svg2"
   version="1.1"><metadata
     id="metadata8"><rdf:RDF><cc:Work
         rdf:about=""><dc:format>image/svg+xml</dc:format><dc:type
           rdf:resource="http://purl.org/dc/dcmitype/StillImage" /></cc:Work></rdf:RDF></metadata><defs
     id="defs6" /><g
     transform="matrix(1.3333333,0,0,-1.3333333,0,1056)"
     id="g10"><g
       transform="translate(72,720)"
       id="g12"><g
         id="g14"><text
           id="text18"
           style="font-variant:normal;font-weight:normal;font-size:17.2154007px;font-family:'TeX Gyre Pagella';-inkscape-font-specification:TeXGyrePagellaX-Regular;writing-mode:lr-tb;fill:#000000;fill-opacity:1;fill-rule:nonzero;stroke:none"
           transform="matrix(1,0,0,-1,89.205,-112.478)"><tspan
             id="tspan16"
             y="0"
             x="0 10.398102 17.198185 26.597794 35.997402 46.016766 56.569805 66.589165 74.835342 84.234955 91.293266 105.16888 113.77658 123.79594 138.61841 149.13701 158.53662 168.10838 173.11806 180.7617 189.3694 198.68294 210.88866 220.28825 235.16237 245.50882 250.51849 258.76468 267.64783 272.6575 278.26971">ProofTheoryandLogicalComplexity</tspan></text>
<text
           id="text24"
           style="font-variant:normal;font-weight:normal;font-size:11.9552002px;font-family:'TeX Gyre Pagella';-inkscape-font-specification:TeXGyrePagellaX-Regular;writing-mode:lr-tb;fill:#000000;fill-opacity:1;fill-rule:nonzero;stroke:none"
           transform="matrix(1,0,0,-1,189.298,-149.437)"><tspan
             id="tspan20"
             y="0"
             x="0 3.9810815 9.7076225 15.685223 22.643148 25.500443 32.637695 38.914177 44.640717 52.686565 61.808384 65.287346 69.842278 75.819878 80.362854">Jean-YvesGirard</tspan><tspan
             id="tspan22"
             y="24.459"
             x="0.58600003 4.5670815 10.544682 17.502607 24.711594 30.689194 35.578869 45.21476 51.19236 57.16996 63.14756 69.12516 75.10276 81.08036">January30,2020</tspan></text>
</g><g
         id="g26"><text
           id="text30"
           style="font-variant:normal;font-weight:bold;font-size:14.34619999px;font-family:'TeX Gyre Pagella';-inkscape-font-specification:TeXGyrePagellaX-Bold;writing-mode:lr-tb;fill:#000000;fill-opacity:1;fill-rule:nonzero;stroke:none"
           transform="matrix(1,0,0,-1,53.798,-220.927)"><tspan
             id="tspan28"
             y="0"
             x="0 10.357956 18.334444 27.099972 31.877256 39.050358 47.815884 52.59317">Contents</tspan></text>
</g><g
         id="g32"><text
           id="text36"
           style="font-variant:normal;font-weight:bold;font-size:10.90909958px;font-family:'TeX Gyre Pagella';-inkscape-font-specification:TeXGyrePagellaX-Bold;writing-mode:lr-tb;fill:#000000;fill-opacity:1;fill-rule:nonzero;stroke:none"
           transform="matrix(1,0,0,-1,53.798,-245.742)"><tspan
             id="tspan34"
             y="0"
             x="0 16.363649 23.02911 27.272751 32.727299 36.360031 39.99276 49.690952 53.323681 59.98914 65.443687 69.90551 73.538246 78.99279">1Preliminaries</tspan></text>
</g><g
         id="g38"><text
           id="text42"
           style="font-variant:normal;font-weight:bold;font-size:10.90909958px;font-family:'TeX Gyre Pagella';-inkscape-font-specification:TeXGyrePagellaX-Bold;writing-mode:lr-tb;fill:#000000;fill-opacity:1;fill-rule:nonzero;stroke:none"
           transform="matrix(1,0,0,-1,406.999,-245.742)"><tspan
             id="tspan40"
             y="0"
             x="0">2</tspan></text>
</g><g
         id="g44"><text
           id="text48"
           style="font-variant:normal;font-weight:normal;font-size:10.90909958px;font-family:'TeX Gyre Pagella';-inkscape-font-specification:TeXGyrePagellaX-Regular;writing-mode:lr-tb;fill:#000000;fill-opacity:1;fill-rule:nonzero;stroke:none"
           transform="matrix(1,0,0,-1,70.162,-259.292)"><tspan
             id="tspan46"
             y="0"
             x="0 5.4545498 8.1818247 25.080021 31.745481 37.200031 43.549126 49.614586 56.192776 61.647324 67.505508 72.730972">1.1Languages</tspan></text>
</g><g
         id="g50"><text
           id="text54"
           style="font-variant:normal;font-weight:normal;font-size:10.90909958px;font-family:'TeX Gyre Pagella';-inkscape-font-specification:TeXGyrePagellaX-Regular;writing-mode:lr-tb;fill:#000000;fill-opacity:1;fill-rule:nonzero;stroke:none"
           transform="matrix(1,0,0,-1,154.706,-259.292)"><tspan
             id="tspan52"
             y="0"
             x="0 8.1709156 16.352741 24.534565 32.716393 40.898216 49.08004 57.261868 65.443687 73.625519 81.807343 89.989166 98.17099 106.35281 114.53464 122.71647 130.89828 139.08011 147.26195 155.44377 163.6256 171.80742 179.98924 188.17107 196.35289 204.53471 212.71654 220.89836 229.08018">.............................</tspan></text>
</g><g
         id="g56"><text
           id="text60"
           style="font-variant:normal;font-weight:normal;font-size:10.90909958px;font-family:'TeX Gyre Pagella';-inkscape-font-specification:TeXGyrePagellaX-Regular;writing-mode:lr-tb;fill:#000000;fill-opacity:1;fill-rule:nonzero;stroke:none"
           transform="matrix(1,0,0,-1,406.999,-259.292)"><tspan
             id="tspan58"
             y="0"
             x="0">2</tspan></text>
</g><g
         id="g62"><text
           id="text66"
           style="font-variant:normal;font-weight:normal;font-size:10.90909958px;font-family:'TeX Gyre Pagella';-inkscape-font-specification:TeXGyrePagellaX-Regular;writing-mode:lr-tb;fill:#000000;fill-opacity:1;fill-rule:nonzero;stroke:none"
           transform="matrix(1,0,0,-1,70.162,-272.841)"><tspan
             id="tspan64"
             y="0"
             x="0 5.4545498 8.1818247 25.080021 31.03639 35.880032 40.723671 47.301857 51.61095 55.920048 61.145504 67.494598 72.338242 77.563698">1.2occurrences</tspan></text>
</g><g
         id="g68"><text
           id="text72"
           style="font-variant:normal;font-weight:normal;font-size:10.90909958px;font-family:'TeX Gyre Pagella';-inkscape-font-specification:TeXGyrePagellaX-Regular;writing-mode:lr-tb;fill:#000000;fill-opacity:1;fill-rule:nonzero;stroke:none"
           transform="matrix(1,0,0,-1,162.888,-272.841)"><tspan
             id="tspan70"
             y="0"
             x="0 8.1709156 16.352741 24.534565 32.716393 40.898216 49.08004 57.261868 65.443687 73.625519 81.807343 89.989166 98.17099 106.35281 114.53464 122.71647 130.89828 139.08011 147.26195 155.44377 163.6256 171.80742 179.98924 188.17107 196.35289 204.53471 212.71654 220.89836">............................</tspan></text>
</g><g
         id="g74"><text
           id="text78"
           style="font-variant:normal;font-weight:normal;font-size:10.90909958px;font-family:'TeX Gyre Pagella';-inkscape-font-specification:TeXGyrePagellaX-Regular;writing-mode:lr-tb;fill:#000000;fill-opacity:1;fill-rule:nonzero;stroke:none"
           transform="matrix(1,0,0,-1,406.999,-272.841)"><tspan
             id="tspan76"
             y="0"
             x="0">2</tspan></text>
</g><g
         id="g80"><text
           id="text84"
           style="font-variant:normal;font-weight:normal;font-size:10.90909958px;font-family:'TeX Gyre Pagella';-inkscape-font-specification:TeXGyrePagellaX-Regular;writing-mode:lr-tb;fill:#000000;fill-opacity:1;fill-rule:nonzero;stroke:none"
           transform="matrix(1,0,0,-1,70.162,-286.39)"><tspan
             id="tspan82"
             y="0"
             x="0 5.4545498 8.1818247 25.080021 28.712751 33.021847 38.247303 46.200039 51.654587 58.003685 67.396423 73.429153 79.385521 85.963707 92.312805 101.70554 107.55282 113.00737 117.31646 120.49101 125.94556 131.97829 135.15285 140.3783">1.3freeandboundvariables</tspan></text>
</g><g
         id="g86"><text
           id="text90"
           style="font-variant:normal;font-weight:normal;font-size:10.90909958px;font-family:'TeX Gyre Pagella';-inkscape-font-specification:TeXGyrePagellaX-Regular;writing-mode:lr-tb;fill:#000000;fill-opacity:1;fill-rule:nonzero;stroke:none"
           transform="matrix(1,0,0,-1,220.159,-286.39)"><tspan
             id="tspan88"
             y="0"
             x="0 8.1818247 16.363649 24.545475 32.716393 40.898216 49.08004 57.261868 65.443687 73.625519 81.807343 89.989166 98.17099 106.35281 114.53464 122.71647 130.89828 139.08011 147.26195 155.44377 163.6256">.....................</tspan></text>
</g><g
         id="g92"><text
           id="text96"
           style="font-variant:normal;font-weight:normal;font-size:10.90909958px;font-family:'TeX Gyre Pagella';-inkscape-font-specification:TeXGyrePagellaX-Regular;writing-mode:lr-tb;fill:#000000;fill-opacity:1;fill-rule:nonzero;stroke:none"
           transform="matrix(1,0,0,-1,406.999,-286.39)"><tspan
             id="tspan94"
             y="0"
             x="0">3</tspan></text>
</g><g
         id="g98"><text
           id="text102"
           style="font-variant:normal;font-weight:bold;font-size:10.90909958px;font-family:'TeX Gyre Pagella';-inkscape-font-specification:TeXGyrePagellaX-Bold;writing-mode:lr-tb;fill:#000000;fill-opacity:1;fill-rule:nonzero;stroke:none"
           transform="matrix(1,0,0,-1,53.798,-310.848)"><tspan
             id="tspan100"
             y="0"
             x="0 16.363649 23.64002 30.305479 38.487305 44.181854 49.636406 53.269135 59.618233 65.683693 72.65461 81.74189 85.374619 89.007347 95.672806 101.12736 105.64372 112.00373 118.66919 122.91283 128.97829 135.20738 139.45102 144.90558">2TheFallofHilbertProgram</tspan></text>
</g><g
         id="g104"><text
           id="text108"
           style="font-variant:normal;font-weight:bold;font-size:10.90909958px;font-family:'TeX Gyre Pagella';-inkscape-font-specification:TeXGyrePagellaX-Bold;writing-mode:lr-tb;fill:#000000;fill-opacity:1;fill-rule:nonzero;stroke:none"
           transform="matrix(1,0,0,-1,406.999,-310.848)"><tspan
             id="tspan106"
             y="0"
             x="0">3</tspan></text>
</g><g
         id="g110"><text
           id="text114"
           style="font-variant:normal;font-weight:normal;font-size:10.90909958px;font-family:'TeX Gyre Pagella';-inkscape-font-specification:TeXGyrePagellaX-Regular;writing-mode:lr-tb;fill:#000000;fill-opacity:1;fill-rule:nonzero;stroke:none"
           transform="matrix(1,0,0,-1,70.162,-324.397)"><tspan
             id="tspan112"
             y="0"
             x="0 5.4545498 8.1818247 25.080021 34.156391 37.33094 40.505489 46.538219 51.76368 56.072773 59.629139 62.400051 69.741875 76.330971 80.640068 86.596436 92.825531 96.981895 102.43645">2.1Hilbert’sProgram</tspan></text>
</g><g
         id="g116"><text
           id="text120"
           style="font-variant:normal;font-weight:normal;font-size:10.90909958px;font-family:'TeX Gyre Pagella';-inkscape-font-specification:TeXGyrePagellaX-Regular;writing-mode:lr-tb;fill:#000000;fill-opacity:1;fill-rule:nonzero;stroke:none"
           transform="matrix(1,0,0,-1,187.433,-324.397)"><tspan
             id="tspan118"
             y="0"
             x="0 8.1709156 16.352741 24.534565 32.716393 40.898216 49.08004 57.261868 65.443687 73.625519 81.807343 89.989166 98.17099 106.35281 114.53464 122.71647 130.89828 139.08011 147.26195 155.44377 163.6256 171.80742 179.98924 188.17107 196.35289">.........................</tspan></text>
</g><g
         id="g122"><text
           id="text126"
           style="font-variant:normal;font-weight:normal;font-size:10.90909958px;font-family:'TeX Gyre Pagella';-inkscape-font-specification:TeXGyrePagellaX-Regular;writing-mode:lr-tb;fill:#000000;fill-opacity:1;fill-rule:nonzero;stroke:none"
           transform="matrix(1,0,0,-1,406.999,-324.397)"><tspan
             id="tspan124"
             y="0"
             x="0">3</tspan></text>
</g><g
         id="g128"><text
           id="text132"
           style="font-variant:normal;font-weight:normal;font-size:10.90909958px;font-family:'TeX Gyre Pagella';-inkscape-font-specification:TeXGyrePagellaX-Regular;writing-mode:lr-tb;fill:#000000;fill-opacity:1;fill-rule:nonzero;stroke:none"
           transform="matrix(1,0,0,-1,70.162,-337.947)"><tspan
             id="tspan130"
             y="0"
             x="0 5.4545498 8.1818247 25.080021 32.160027 37.385487 42.229126 48.807312 53.116409 57.741867 60.916416 66.643692 74.585518 80.443703 87.021889 93.370987 98.21463 101.771 104.94554 110.90191 117.25101">2.2RecursiveFunctions</tspan></text>
</g><g
         id="g134"><text
           id="text138"
           style="font-variant:normal;font-weight:normal;font-size:10.90909958px;font-family:'TeX Gyre Pagella';-inkscape-font-specification:TeXGyrePagellaX-Regular;writing-mode:lr-tb;fill:#000000;fill-opacity:1;fill-rule:nonzero;stroke:none"
           transform="matrix(1,0,0,-1,195.614,-337.947)"><tspan
             id="tspan136"
             y="0"
             x="0 8.1818247 16.363649 24.534565 32.716393 40.898216 49.08004 57.261868 65.443687 73.625519 81.807343 89.989166 98.17099 106.35281 114.53464 122.71647 130.89828 139.08011 147.26195 155.44377 163.6256 171.80742 179.98924 188.17107">........................</tspan></text>
</g><g
         id="g140"><text
           id="text144"
           style="font-variant:normal;font-weight:normal;font-size:10.90909958px;font-family:'TeX Gyre Pagella';-inkscape-font-specification:TeXGyrePagellaX-Regular;writing-mode:lr-tb;fill:#000000;fill-opacity:1;fill-rule:nonzero;stroke:none"
           transform="matrix(1,0,0,-1,406.999,-337.947)"><tspan
             id="tspan142"
             y="0"
             x="0">4</tspan></text>
</g><g
         id="g146"><text
           id="text150"
           style="font-variant:normal;font-weight:normal;font-size:10.90909958px;font-family:'TeX Gyre Pagella';-inkscape-font-specification:TeXGyrePagellaX-Regular;writing-mode:lr-tb;fill:#000000;fill-opacity:1;fill-rule:nonzero;stroke:none"
           transform="matrix(1,0,0,-1,230.399,-627.049)"><tspan
             id="tspan148"
             y="0"
             x="0">1</tspan></text>
</g></g></g></svg>